<svg width="75" height="75" viewBox="0 0 75 75" fill="none" xmlns="http://www.w3.org/2000/svg">
<path d="M60.3272 47.6299C58.0517 43.9141 55.0934 32.255 58.8092 29.9795C61.3714 28.4108 66.4641 31.6956 70.1244 35.1056C68.8932 17.8498 54.5388 4.22266 36.9693 4.22266C19.0322 4.22266 4.44953 18.4266 3.76025 36.1957C7.42374 32.4514 13.3531 28.2413 16.1895 29.978C19.9053 32.2534 16.9469 43.9125 14.6715 47.6283C12.9649 50.4155 9.78155 51.7751 6.72812 51.3219C11.9809 62.7909 23.5291 70.7738 36.9693 70.7738C50.3873 70.7738 61.9196 62.8162 67.1835 51.3773C64.485 51.4058 61.8309 50.0875 60.3272 47.6299Z" fill="#FBD971"/>
<path d="M20.5991 58.099C20.5991 48.4729 28.403 40.6689 38.0292 40.6689C47.6553 40.6689 55.4593 48.4729 55.4593 58.099H20.5991Z" fill="#C03A2B"/>
<path d="M20.5991 58.0985C20.5991 53.7236 28.403 50.1758 38.0292 50.1758C47.6553 50.1758 55.4593 53.7236 55.4593 58.0985" fill="#E64C3C"/>
<path d="M30.6325 32.7466C29.7563 32.7466 29.048 32.0383 29.048 31.162C29.048 28.5412 26.9152 26.4084 24.2943 26.4084C21.6735 26.4084 19.5407 28.5412 19.5407 31.162C19.5407 32.0383 18.8324 32.7466 17.9561 32.7466C17.0799 32.7466 16.3716 32.0383 16.3716 31.162C16.3716 26.7934 19.9257 23.2393 24.2943 23.2393C28.6629 23.2393 32.2171 26.7934 32.2171 31.162C32.2171 32.0383 31.5088 32.7466 30.6325 32.7466Z" fill="#F29C1F"/>
<path d="M57.57 32.7466C56.6938 32.7466 55.9855 32.0383 55.9855 31.162C55.9855 28.5412 53.8527 26.4084 51.2318 26.4084C48.611 26.4084 46.4782 28.5412 46.4782 31.162C46.4782 32.0383 45.7699 32.7466 44.8936 32.7466C44.0174 32.7466 43.3091 32.0383 43.3091 31.162C43.3091 26.7934 46.8632 23.2393 51.2318 23.2393C55.6004 23.2393 59.1546 26.7934 59.1546 31.162C59.1546 32.0383 58.4463 32.7466 57.57 32.7466Z" fill="#F29C1F"/>
<path d="M71.221 50.2508C67.5053 52.5262 62.6027 51.3473 60.3272 47.6315C58.0518 43.9157 55.0935 32.2566 58.8092 29.9812C62.525 27.7058 71.5649 35.6412 73.8403 39.357C76.1157 43.0728 74.9368 47.9754 71.221 50.2508Z" fill="#48A0DC"/>
<path d="M3.77903 50.2508C7.4948 52.5262 12.3974 51.3473 14.6728 47.6315C16.9482 43.9157 19.9066 32.2566 16.1908 29.9812C12.4751 27.7058 3.43518 35.6412 1.15977 39.357C-1.11565 43.0728 0.0632564 47.9754 3.77903 50.2508Z" fill="#48A0DC"/>
</svg>
