<svg width="24" height="24" viewBox="0 0 24 24" fill="none" xmlns="http://www.w3.org/2000/svg">
<path d="M23.3436 10.5782C23.2658 10.0907 22.8075 9.75852 22.3199 9.83631C21.8323 9.91409 21.5002 10.3724 21.578 10.86C21.5788 10.8653 21.5797 10.8706 21.5807 10.8759C22.491 16.235 18.8846 21.3174 13.5255 22.2277C8.16644 23.1381 3.08407 19.5317 2.17369 14.1726C1.26332 8.81353 4.86977 3.73116 10.2288 2.82079C13.5245 2.26095 16.8791 3.41216 19.1366 5.87776L15.1764 7.19723C14.7079 7.35311 14.4545 7.85921 14.6103 8.3277C14.6104 8.3278 14.6104 8.32796 14.6105 8.32807C14.7664 8.79656 15.2725 9.04992 15.741 8.89409C15.7411 8.89404 15.7412 8.89398 15.7413 8.89398L21.1051 7.10608C21.4703 6.98446 21.7166 6.64267 21.7166 6.25773V0.893976C21.7166 0.400239 21.3163 0 20.8226 0C20.3289 0 19.9286 0.400239 19.9286 0.893976V4.15958C15.3248 -0.219212 8.04293 -0.0367708 3.66413 4.56705C-0.714671 9.17087 -0.532282 16.4527 4.0716 20.8316C8.67547 25.2104 15.9573 25.028 20.3362 20.4241C22.8331 17.7988 23.9474 14.1507 23.3436 10.5782Z" fill="#494949"/>
</svg>
