<svg width="75" height="75" viewBox="0 0 75 75" fill="none" xmlns="http://www.w3.org/2000/svg">
<g clip-path="url(#clip0)">
<path d="M68.05 0H61.7521L57.2811 4.39453H68.05C69.2557 4.39453 70.2349 5.3793 70.2349 6.5918V9.93919C70.2349 14.3681 68.7203 18.7111 65.9676 22.1701C63.6183 25.1249 60.4906 27.3176 56.9232 28.513L53.8422 29.5452C52.6986 29.9292 52.0795 31.1737 52.4596 32.3261C52.7646 33.2468 53.618 33.8282 54.5335 33.8282C54.7617 33.8282 54.9944 33.7915 55.2248 33.7166L58.3058 32.682C62.6732 31.2189 66.503 28.5324 69.3814 24.9166C72.7486 20.6812 74.6046 15.3614 74.6046 9.93919V6.5918C74.6046 2.95715 71.6641 0 68.05 0Z" fill="#FF7816"/>
<path d="M20.7907 29.5452L17.7097 28.5152C14.1422 27.3176 11.0146 25.1249 8.66531 22.1701C5.91263 18.7111 4.39802 14.3681 4.39802 9.93919V6.5918C4.39802 5.3793 5.37722 4.39453 6.58288 4.39453H17.8736L12.8808 0H6.58288C2.96877 0 0.0283203 2.95715 0.0283203 6.5918V9.93919C0.0283203 15.3614 1.88431 20.6812 5.25148 24.9166C8.12991 28.5324 11.9597 31.2189 16.3271 32.6843L19.4081 33.7166C19.6385 33.7915 19.8712 33.8282 20.0994 33.8282C21.0148 33.8282 21.8683 33.2468 22.1733 32.3261C22.5533 31.1737 21.9343 29.9292 20.7907 29.5452Z" fill="#FF9F00"/>
<path d="M44.0168 42.8907V46.1426C44.0168 47.3728 44.9778 48.3398 46.2016 48.3398C49.8288 48.3398 52.7562 51.2838 52.7562 54.9316V59.3262C52.7562 60.5564 51.7952 61.5234 50.5713 61.5234H24.0618C22.8379 61.5234 21.8769 60.5564 21.8769 59.3262V54.9316C21.8769 51.2838 24.8043 48.3398 28.4315 48.3398C29.6554 48.3398 30.6164 47.3728 30.6164 46.1426V42.8907C22.4886 40.2975 16.5463 33.0906 15.5847 24.5213L12.8752 0H61.7579L59.0484 24.5213C58.0869 33.0906 52.1445 40.2975 44.0168 42.8907Z" fill="#FFD400"/>
<path d="M50.5712 61.5234H37.3164V0H61.7577L59.0483 24.5213C58.0867 33.0906 52.1444 40.2975 44.0166 42.8907V46.1426C44.0166 47.3728 44.9776 48.3398 46.2015 48.3398C49.8287 48.3398 52.756 51.2838 52.756 54.9316V59.3262C52.756 60.5564 51.795 61.5234 50.5712 61.5234Z" fill="#FF9F00"/>
<path d="M48.1531 16.5674C47.8908 15.7325 47.1921 15.1615 46.362 15.0299L41.4677 14.3266L39.2829 9.97559C38.8897 9.22886 38.1028 8.87695 37.3165 8.87695C36.5302 8.87695 35.7433 9.22886 35.3501 9.97559L33.1653 14.3266L28.271 15.0293C27.4408 15.1615 26.7421 15.7325 26.4798 16.5674C26.2614 17.3587 26.4798 18.2371 27.0915 18.8087L30.5873 22.1927L29.7571 26.9386C29.6257 27.7299 29.9318 28.5648 30.6311 29.0924C31.2865 29.5753 32.2043 29.6634 32.903 29.268L37.3165 26.9827L41.73 29.268C42.4725 29.6634 43.3464 29.5753 44.0025 29.0924C44.7012 28.5648 45.0073 27.7299 44.8758 26.9386L44.0457 22.1927L47.5415 18.8087C48.1531 18.2376 48.3722 17.3587 48.1531 16.5674Z" fill="#FF9F00"/>
<path d="M57.1257 59.3262V72.6271H17.5071V59.3262C17.5071 58.0954 18.4681 57.1289 19.6919 57.1289H54.9409C56.1647 57.1289 57.1257 58.0954 57.1257 59.3262Z" fill="#EC5569"/>
<path d="M41.7299 29.268L37.3164 26.9827V8.87695C38.1027 8.87695 38.8896 9.22886 39.2828 9.97559L41.4676 14.3266L46.3619 15.0299C47.192 15.1615 47.8907 15.7325 48.153 16.5674C48.3715 17.3587 48.153 18.2376 47.5414 18.8087L44.0456 22.1927L44.8758 26.9392C45.0072 27.7299 44.7011 28.5648 44.0018 29.0924C43.3464 29.5753 42.4724 29.6634 41.7299 29.268Z" fill="#FF7816"/>
<path d="M57.1257 59.3262V72.6271H37.3164V57.1289H54.9409C56.1647 57.1289 57.1257 58.0954 57.1257 59.3262Z" fill="#CC2E43"/>
<path d="M61.4955 72.8027C61.4955 74.033 60.5345 75 59.3106 75H15.3223C14.0984 75 13.1375 74.033 13.1375 72.8027C13.1375 71.5719 14.0984 70.6055 15.3223 70.6055H59.3106C60.5345 70.6055 61.4955 71.5719 61.4955 72.8027Z" fill="#697C86"/>
<path d="M61.4954 72.8027C61.4954 74.033 60.5344 75 59.3106 75H37.3164V70.6055H59.3106C60.5344 70.6055 61.4954 71.5719 61.4954 72.8027Z" fill="#465A61"/>
</g>
<defs>
<clipPath id="clip0">
<rect width="74.5763" height="75" fill="white" transform="translate(0.0283203)"/>
</clipPath>
</defs>
</svg>
